<svg aria-roledescription="flowchart-v2" role="graphics-document document" viewBox="-8 -8 2722.68359375 1222" style="max-width: 2722.68px; background-color: white;" xmlns:xlink="http://www.w3.org/1999/xlink" xmlns="http://www.w3.org/2000/svg" width="100%" id="my-svg"><style>#my-svg{font-family:"trebuchet ms",verdana,arial,sans-serif;font-size:16px;fill:#333;}#my-svg .error-icon{fill:#552222;}#my-svg .error-text{fill:#552222;stroke:#552222;}#my-svg .edge-thickness-normal{stroke-width:2px;}#my-svg .edge-thickness-thick{stroke-width:3.5px;}#my-svg .edge-pattern-solid{stroke-dasharray:0;}#my-svg .edge-pattern-dashed{stroke-dasharray:3;}#my-svg .edge-pattern-dotted{stroke-dasharray:2;}#my-svg .marker{fill:#333333;stroke:#333333;}#my-svg .marker.cross{stroke:#333333;}#my-svg svg{font-family:"trebuchet ms",verdana,arial,sans-serif;font-size:16px;}#my-svg .label{font-family:"trebuchet ms",verdana,arial,sans-serif;color:#333;}#my-svg .cluster-label text{fill:#333;}#my-svg .cluster-label span,#my-svg p{color:#333;}#my-svg .label text,#my-svg span,#my-svg p{fill:#333;color:#333;}#my-svg .node rect,#my-svg .node circle,#my-svg .node ellipse,#my-svg .node polygon,#my-svg .node path{fill:#ECECFF;stroke:#9370DB;stroke-width:1px;}#my-svg .flowchart-label text{text-anchor:middle;}#my-svg .node .katex path{fill:#000;stroke:#000;stroke-width:1px;}#my-svg .node .label{text-align:center;}#my-svg .node.clickable{cursor:pointer;}#my-svg .arrowheadPath{fill:#333333;}#my-svg .edgePath .path{stroke:#333333;stroke-width:2.0px;}#my-svg .flowchart-link{stroke:#333333;fill:none;}#my-svg .edgeLabel{background-color:#e8e8e8;text-align:center;}#my-svg .edgeLabel rect{opacity:0.5;background-color:#e8e8e8;fill:#e8e8e8;}#my-svg .labelBkg{background-color:rgba(232, 232, 232, 0.5);}#my-svg .cluster rect{fill:#ffffde;stroke:#aaaa33;stroke-width:1px;}#my-svg .cluster text{fill:#333;}#my-svg .cluster span,#my-svg p{color:#333;}#my-svg div.mermaidTooltip{position:absolute;text-align:center;max-width:200px;padding:2px;font-family:"trebuchet ms",verdana,arial,sans-serif;font-size:12px;background:hsl(80, 100%, 96.2745098039%);border:1px solid #aaaa33;border-radius:2px;pointer-events:none;z-index:100;}#my-svg .flowchartTitleText{text-anchor:middle;font-size:18px;fill:#333;}#my-svg :root{--mermaid-font-family:"trebuchet ms",verdana,arial,sans-serif;}</style><g><marker orient="auto" markerHeight="12" markerWidth="12" markerUnits="userSpaceOnUse" refY="5" refX="6" viewBox="0 0 10 10" class="marker flowchart" id="my-svg_flowchart-pointEnd"><path style="stroke-width: 1; stroke-dasharray: 1, 0;" class="arrowMarkerPath" d="M 0 0 L 10 5 L 0 10 z"/></marker><marker orient="auto" markerHeight="12" markerWidth="12" markerUnits="userSpaceOnUse" refY="5" refX="4.5" viewBox="0 0 10 10" class="marker flowchart" id="my-svg_flowchart-pointStart"><path style="stroke-width: 1; stroke-dasharray: 1, 0;" class="arrowMarkerPath" d="M 0 5 L 10 10 L 10 0 z"/></marker><marker orient="auto" markerHeight="11" markerWidth="11" markerUnits="userSpaceOnUse" refY="5" refX="11" viewBox="0 0 10 10" class="marker flowchart" id="my-svg_flowchart-circleEnd"><circle style="stroke-width: 1; stroke-dasharray: 1, 0;" class="arrowMarkerPath" r="5" cy="5" cx="5"/></marker><marker orient="auto" markerHeight="11" markerWidth="11" markerUnits="userSpaceOnUse" refY="5" refX="-1" viewBox="0 0 10 10" class="marker flowchart" id="my-svg_flowchart-circleStart"><circle style="stroke-width: 1; stroke-dasharray: 1, 0;" class="arrowMarkerPath" r="5" cy="5" cx="5"/></marker><marker orient="auto" markerHeight="11" markerWidth="11" markerUnits="userSpaceOnUse" refY="5.2" refX="12" viewBox="0 0 11 11" class="marker cross flowchart" id="my-svg_flowchart-crossEnd"><path style="stroke-width: 2; stroke-dasharray: 1, 0;" class="arrowMarkerPath" d="M 1,1 l 9,9 M 10,1 l -9,9"/></marker><marker orient="auto" markerHeight="11" markerWidth="11" markerUnits="userSpaceOnUse" refY="5.2" refX="-1" viewBox="0 0 11 11" class="marker cross flowchart" id="my-svg_flowchart-crossStart"><path style="stroke-width: 2; stroke-dasharray: 1, 0;" class="arrowMarkerPath" d="M 1,1 l 9,9 M 10,1 l -9,9"/></marker><g class="root"><g class="clusters"><g id="EXT_SYS" class="cluster default flowchart-label"><rect height="86" width="812.23828125" y="1120" x="1292.5078125" ry="0" rx="0" style=""/><g transform="translate(1666.626953125, 1120)" class="cluster-label"><foreignObject height="21" width="64"><div style="display: inline-block; white-space: nowrap;" xmlns="http://www.w3.org/1999/xhtml"><span class="nodeLabel">外部系统</span></div></foreignObject></g></g><g id="DATA" class="cluster default flowchart-label"><rect height="105" width="435.40625" y="965" x="0" ry="0" rx="0" style=""/><g transform="translate(177.703125, 965)" class="cluster-label"><foreignObject height="21" width="80"><div style="display: inline-block; white-space: nowrap;" xmlns="http://www.w3.org/1999/xhtml"><span class="nodeLabel">平台数据层</span></div></foreignObject></g></g><g id="APP" class="cluster default flowchart-label"><rect height="898" width="1774.91796875" y="172" x="455.40625" ry="0" rx="0" style=""/><g transform="translate(1277.162109375, 172)" class="cluster-label"><foreignObject height="21" width="131.40625"><div style="display: inline-block; white-space: nowrap;" xmlns="http://www.w3.org/1999/xhtml"><span class="nodeLabel">平台主进程（Go）</span></div></foreignObject></g></g><g id="TOOLS" class="cluster default flowchart-label"><rect height="105" width="1513.22265625" y="810" x="475.40625" ry="0" rx="0" style=""/><g transform="translate(1172.416015625, 810)" class="cluster-label"><foreignObject height="21" width="119.203125"><div style="display: inline-block; white-space: nowrap;" xmlns="http://www.w3.org/1999/xhtml"><span class="nodeLabel">内部 MCP 工具层</span></div></foreignObject></g></g></g><g class="edgePaths"><path marker-end="url(#my-svg_flowchart-pointEnd)" style="fill:none;" class="edge-thickness-normal edge-pattern-solid flowchart-link LS-U LE-FE" id="L-U-FE-0" d="M2630.504,36L2630.504,40.167C2630.504,44.333,2630.504,52.667,2630.504,60.117C2630.504,67.567,2630.504,74.133,2630.504,77.417L2630.504,80.7"/><path marker-end="url(#my-svg_flowchart-pointEnd)" style="fill:none;" class="edge-thickness-normal edge-pattern-solid flowchart-link LS-FE LE-API" id="L-FE-API-0" d="M2630.504,122L2630.504,126.167C2630.504,130.333,2630.504,138.667,2630.504,147C2630.504,155.333,2630.504,163.667,2630.504,173.033C2630.504,182.4,2630.504,192.8,2630.504,198L2630.504,203.2"/><path marker-end="url(#my-svg_flowchart-pointEnd)" style="fill:none;" class="edge-thickness-normal edge-pattern-solid flowchart-link LS-API LE-CHAT" id="L-API-CHAT-0" d="M2576.316,237.3L2544.401,244.25C2512.486,251.2,2448.655,265.1,2416.74,275.333C2384.824,285.567,2384.824,292.133,2384.824,295.417L2384.824,298.7"/><path marker-end="url(#my-svg_flowchart-pointEnd)" style="fill:none;" class="edge-thickness-normal edge-pattern-solid flowchart-link LS-API LE-AH" id="L-API-AH-0" d="M2630.504,242.5L2630.504,248.583C2630.504,254.667,2630.504,266.833,2630.504,276.2C2630.504,285.567,2630.504,292.133,2630.504,295.417L2630.504,298.7"/><path marker-end="url(#my-svg_flowchart-pointEnd)" style="fill:none;" class="edge-thickness-normal edge-pattern-solid flowchart-link LS-CHAT LE-ORCH" id="L-CHAT-ORCH-0" d="M2265.324,325.198L2119.331,317.498C1973.337,309.798,1681.35,294.399,1532.262,283.195C1383.173,271.991,1376.983,264.982,1373.887,261.477L1370.792,257.973"/><path marker-end="url(#my-svg_flowchart-pointEnd)" style="fill:none;" class="edge-thickness-normal edge-pattern-solid flowchart-link LS-ORCH LE-CHAT" id="L-ORCH-CHAT-0" d="M1316.943,254L1313.263,258.167C1309.583,262.333,1302.223,270.667,1459.404,282.582C1616.586,294.496,1938.308,309.993,2099.169,317.741L2260.03,325.489"/><path marker-end="url(#my-svg_flowchart-pointEnd)" style="fill:none;" class="edge-thickness-normal edge-pattern-solid flowchart-link LS-CHAT LE-ENG" id="L-CHAT-ENG-0" d="M2265.324,334.918L1979.349,343.099C1693.374,351.279,1121.423,367.639,995.467,383.467C869.511,399.295,1189.55,414.59,1349.569,422.237L1509.589,429.885"/><path marker-end="url(#my-svg_flowchart-pointEnd)" style="fill:none;" class="edge-thickness-normal edge-pattern-solid flowchart-link LS-AH LE-ENG" id="L-AH-ENG-0" d="M2554.324,339.592L2484.646,346.993C2414.969,354.395,2275.613,369.197,2147.629,382.868C2019.645,396.539,1903.031,409.079,1844.725,415.348L1786.418,421.618"/><path marker-end="url(#my-svg_flowchart-pointEnd)" style="fill:none;" class="edge-thickness-normal edge-pattern-solid flowchart-link LS-ENG LE-EXEC" id="L-ENG-EXEC-0" d="M1514.883,457.583L1481.818,462.819C1448.754,468.055,1382.625,478.528,1349.561,487.047C1316.496,495.567,1316.496,502.133,1316.496,505.417L1316.496,508.7"/><path marker-end="url(#my-svg_flowchart-pointEnd)" style="fill:none;" class="edge-thickness-normal edge-pattern-solid flowchart-link LS-EXEC LE-HUB" id="L-EXEC-HUB-0" d="M1212.996,548.917L1108.15,556.431C1003.303,563.945,793.611,578.972,688.764,589.77C583.918,600.567,583.918,607.133,583.918,610.417L583.918,613.7"/><path marker-end="url(#my-svg_flowchart-pointEnd)" style="fill:none;" class="edge-thickness-normal edge-pattern-solid flowchart-link LS-EXEC LE-MCP_CLIENT" id="L-EXEC-MCP_CLIENT-0" d="M1360.58,569L1367.259,573.167C1373.939,577.333,1387.297,585.667,1393.977,594.7C1400.656,603.733,1400.656,613.467,1400.656,618.333L1400.656,623.2"/><path marker-end="url(#my-svg_flowchart-pointEnd)" marker-start="url(#my-svg_flowchart-pointStart)" style="fill:none;" class="edge-thickness-normal edge-pattern-solid flowchart-link LS-MCP_CLIENT LE-MCP_SERVER" id="L-MCP_CLIENT-MCP_SERVER-0" d="M1400.656,669.8L1400.656,674.667C1400.656,679.533,1400.656,689.267,1400.656,697.417C1400.656,705.567,1400.656,712.133,1400.656,715.417L1400.656,718.7"/><path marker-end="url(#my-svg_flowchart-pointEnd)" style="fill:none;" class="edge-thickness-normal edge-pattern-solid flowchart-link LS-MCP_SERVER LE-T1" id="L-MCP_SERVER-T1-0" d="M1334.844,745.735L1219.527,752.279C1104.211,758.823,873.578,771.912,758.262,782.622C642.945,793.333,642.945,801.667,642.945,810.867C642.945,820.067,642.945,830.133,642.945,835.167L642.945,840.2"/><path marker-end="url(#my-svg_flowchart-pointEnd)" style="fill:none;" class="edge-thickness-normal edge-pattern-solid flowchart-link LS-MCP_SERVER LE-T2" id="L-MCP_SERVER-T2-0" d="M1334.844,749.452L1282.521,755.377C1230.198,761.301,1125.552,773.151,1073.229,783.242C1020.906,793.333,1020.906,801.667,1020.906,810.867C1020.906,820.067,1020.906,830.133,1020.906,835.167L1020.906,840.2"/><path marker-end="url(#my-svg_flowchart-pointEnd)" style="fill:none;" class="edge-thickness-normal edge-pattern-solid flowchart-link LS-MCP_SERVER LE-T3" id="L-MCP_SERVER-T3-0" d="M1400.656,760L1400.656,764.167C1400.656,768.333,1400.656,776.667,1400.656,785C1400.656,793.333,1400.656,801.667,1400.656,810.867C1400.656,820.067,1400.656,830.133,1400.656,835.167L1400.656,840.2"/><path marker-end="url(#my-svg_flowchart-pointEnd)" style="fill:none;" class="edge-thickness-normal edge-pattern-solid flowchart-link LS-MCP_SERVER LE-T4" id="L-MCP_SERVER-T4-0" d="M1466.469,751.853L1503.368,757.378C1540.267,762.902,1614.065,773.951,1650.964,783.642C1687.863,793.333,1687.863,801.667,1687.863,810.867C1687.863,820.067,1687.863,830.133,1687.863,835.167L1687.863,840.2"/><path marker-end="url(#my-svg_flowchart-pointEnd)" style="fill:none;" class="edge-thickness-normal edge-pattern-solid flowchart-link LS-MCP_SERVER LE-T5" id="L-MCP_SERVER-T5-0" d="M1466.469,747.877L1535.753,754.064C1605.038,760.251,1743.607,772.626,1812.891,782.98C1882.176,793.333,1882.176,801.667,1882.176,810.867C1882.176,820.067,1882.176,830.133,1882.176,835.167L1882.176,840.2"/><path marker-end="url(#my-svg_flowchart-pointEnd)" style="fill:none;" class="edge-thickness-normal edge-pattern-solid flowchart-link LS-T1 LE-PG" id="L-T1-PG-0" d="M622.296,879.5L615.109,885.417C607.923,891.333,593.549,903.167,586.363,913.25C579.176,923.333,579.176,931.667,579.176,940C579.176,948.333,579.176,956.667,522.532,968.416C465.889,980.165,352.602,995.329,295.959,1002.912L239.316,1010.494"/><path marker-end="url(#my-svg_flowchart-pointEnd)" style="fill:none;" class="edge-thickness-normal edge-pattern-solid flowchart-link LS-T1 LE-MINIO" id="L-T1-MINIO-0" d="M700.901,879.5L721.072,885.417C741.243,891.333,781.584,903.167,801.755,913.25C821.926,923.333,821.926,931.667,821.926,940C821.926,948.333,821.926,956.667,700.801,969.206C579.677,981.746,337.427,998.492,216.303,1006.864L95.178,1015.237"/><path marker-end="url(#my-svg_flowchart-pointEnd)" style="fill:none;" class="edge-thickness-normal edge-pattern-solid flowchart-link LS-T2 LE-MINIO" id="L-T2-MINIO-0" d="M1020.906,879.5L1020.906,885.417C1020.906,891.333,1020.906,903.167,1020.906,913.25C1020.906,923.333,1020.906,931.667,1020.906,940C1020.906,948.333,1020.906,956.667,866.619,969.284C712.332,981.902,403.757,998.805,249.47,1007.256L95.183,1015.707"/><path marker-end="url(#my-svg_flowchart-pointEnd)" style="fill:none;" class="edge-thickness-normal edge-pattern-solid flowchart-link LS-T3 LE-EXT" id="L-T3-EXT-0" d="M1400.656,879.5L1400.656,885.417C1400.656,891.333,1400.656,903.167,1400.656,913.25C1400.656,923.333,1400.656,931.667,1400.656,940C1400.656,948.333,1400.656,956.667,1400.656,964.117C1400.656,971.567,1400.656,978.133,1400.656,981.417L1400.656,984.7"/><path marker-end="url(#my-svg_flowchart-pointEnd)" style="fill:none;" class="edge-thickness-normal edge-pattern-solid flowchart-link LS-EXT LE-CCBOS" id="L-EXT-CCBOS-0" d="M1400.656,1045L1400.656,1049.167C1400.656,1053.333,1400.656,1061.667,1400.656,1070C1400.656,1078.333,1400.656,1086.667,1400.656,1095C1400.656,1103.333,1400.656,1111.667,1400.656,1119.283C1400.656,1126.9,1400.656,1133.8,1400.656,1137.25L1400.656,1140.7"/><path marker-end="url(#my-svg_flowchart-pointEnd)" style="fill:none;" class="edge-thickness-normal edge-pattern-solid flowchart-link LS-T4 LE-AUX" id="L-T4-AUX-0" d="M1687.863,879.5L1687.863,885.417C1687.863,891.333,1687.863,903.167,1687.863,913.25C1687.863,923.333,1687.863,931.667,1687.863,940C1687.863,948.333,1687.863,956.667,1687.863,969.583C1687.863,982.5,1687.863,1000,1687.863,1017.5C1687.863,1035,1687.863,1052.5,1687.863,1065.417C1687.863,1078.333,1687.863,1086.667,1687.863,1095C1687.863,1103.333,1687.863,1111.667,1729.067,1121.419C1770.271,1131.172,1852.68,1142.344,1893.884,1147.93L1935.088,1153.516"/><path marker-end="url(#my-svg_flowchart-pointEnd)" style="fill:none;" class="edge-thickness-normal edge-pattern-solid flowchart-link LS-T5 LE-TARGET" id="L-T5-TARGET-0" d="M1882.176,879.5L1882.176,885.417C1882.176,891.333,1882.176,903.167,1882.176,913.25C1882.176,923.333,1882.176,931.667,1882.176,940C1882.176,948.333,1882.176,956.667,1882.176,969.583C1882.176,982.5,1882.176,1000,1882.176,1017.5C1882.176,1035,1882.176,1052.5,1882.176,1065.417C1882.176,1078.333,1882.176,1086.667,1882.176,1095C1882.176,1103.333,1882.176,1111.667,1879.643,1119.288C1877.111,1126.909,1872.046,1133.817,1869.514,1137.271L1866.982,1140.726"/><path marker-end="url(#my-svg_flowchart-pointEnd)" style="fill:none;" class="edge-thickness-normal edge-pattern-solid flowchart-link LS-ENG LE-REP" id="L-ENG-REP-0" d="M1781.148,452.182L1833.243,458.318C1885.337,464.455,1989.526,476.727,2041.62,491.614C2093.715,506.5,2093.715,524,2093.715,541.5C2093.715,559,2093.715,576.5,2093.715,594C2093.715,611.5,2093.715,629,2093.715,646.5C2093.715,664,2093.715,681.5,2093.715,697.417C2093.715,713.333,2093.715,727.667,2093.715,742C2093.715,756.333,2093.715,770.667,2093.715,782C2093.715,793.333,2093.715,801.667,2093.715,809.117C2093.715,816.567,2093.715,823.133,2093.715,826.417L2093.715,829.7"/><path marker-end="url(#my-svg_flowchart-pointEnd)" style="fill:none;" class="edge-thickness-normal edge-pattern-solid flowchart-link LS-REP LE-AUX" id="L-REP-AUX-0" d="M2056.463,890L2050.819,894.167C2045.175,898.333,2033.886,906.667,2028.242,915C2022.598,923.333,2022.598,931.667,2022.598,940C2022.598,948.333,2022.598,956.667,2022.598,969.583C2022.598,982.5,2022.598,1000,2022.598,1017.5C2022.598,1035,2022.598,1052.5,2022.598,1065.417C2022.598,1078.333,2022.598,1086.667,2022.598,1095C2022.598,1103.333,2022.598,1111.667,2021.23,1119.182C2019.863,1126.698,2017.129,1133.395,2015.762,1136.744L2014.395,1140.093"/><path marker-end="url(#my-svg_flowchart-pointEnd)" style="fill:none;" class="edge-thickness-normal edge-pattern-solid flowchart-link LS-REP LE-MINIO" id="L-REP-MINIO-0" d="M2093.715,890L2093.715,894.167C2093.715,898.333,2093.715,906.667,2093.715,915C2093.715,923.333,2093.715,931.667,2093.715,940C2093.715,948.333,2093.715,956.667,1760.627,969.442C1427.54,982.218,761.364,999.436,428.277,1008.045L95.189,1016.654"/><path marker-end="url(#my-svg_flowchart-pointEnd)" style="fill:none;" class="edge-thickness-normal edge-pattern-solid flowchart-link LS-REP LE-PG" id="L-REP-PG-0" d="M2121.237,890L2125.407,894.167C2129.578,898.333,2137.918,906.667,2142.088,915C2146.258,923.333,2146.258,931.667,2146.258,940C2146.258,948.333,2146.258,956.667,1828.442,969.349C1510.625,982.032,874.993,999.064,557.177,1007.58L239.361,1016.096"/></g><g class="edgeLabels"><g class="edgeLabel"><g transform="translate(0, 0)" class="label"><foreignObject height="0" width="0"><div style="display: inline-block; white-space: nowrap;" xmlns="http://www.w3.org/1999/xhtml"><span class="edgeLabel"></span></div></foreignObject></g></g><g class="edgeLabel"><g transform="translate(0, 0)" class="label"><foreignObject height="0" width="0"><div style="display: inline-block; white-space: nowrap;" xmlns="http://www.w3.org/1999/xhtml"><span class="edgeLabel"></span></div></foreignObject></g></g><g class="edgeLabel"><g transform="translate(0, 0)" class="label"><foreignObject height="0" width="0"><div style="display: inline-block; white-space: nowrap;" xmlns="http://www.w3.org/1999/xhtml"><span class="edgeLabel"></span></div></foreignObject></g></g><g class="edgeLabel"><g transform="translate(0, 0)" class="label"><foreignObject height="0" width="0"><div style="display: inline-block; white-space: nowrap;" xmlns="http://www.w3.org/1999/xhtml"><span class="edgeLabel"></span></div></foreignObject></g></g><g class="edgeLabel"><g transform="translate(0, 0)" class="label"><foreignObject height="0" width="0"><div style="display: inline-block; white-space: nowrap;" xmlns="http://www.w3.org/1999/xhtml"><span class="edgeLabel"></span></div></foreignObject></g></g><g class="edgeLabel"><g transform="translate(0, 0)" class="label"><foreignObject height="0" width="0"><div style="display: inline-block; white-space: nowrap;" xmlns="http://www.w3.org/1999/xhtml"><span class="edgeLabel"></span></div></foreignObject></g></g><g class="edgeLabel"><g transform="translate(0, 0)" class="label"><foreignObject height="0" width="0"><div style="display: inline-block; white-space: nowrap;" xmlns="http://www.w3.org/1999/xhtml"><span class="edgeLabel"></span></div></foreignObject></g></g><g class="edgeLabel"><g transform="translate(0, 0)" class="label"><foreignObject height="0" width="0"><div style="display: inline-block; white-space: nowrap;" xmlns="http://www.w3.org/1999/xhtml"><span class="edgeLabel"></span></div></foreignObject></g></g><g class="edgeLabel"><g transform="translate(0, 0)" class="label"><foreignObject height="0" width="0"><div style="display: inline-block; white-space: nowrap;" xmlns="http://www.w3.org/1999/xhtml"><span class="edgeLabel"></span></div></foreignObject></g></g><g class="edgeLabel"><g transform="translate(0, 0)" class="label"><foreignObject height="0" width="0"><div style="display: inline-block; white-space: nowrap;" xmlns="http://www.w3.org/1999/xhtml"><span class="edgeLabel"></span></div></foreignObject></g></g><g class="edgeLabel"><g transform="translate(0, 0)" class="label"><foreignObject height="0" width="0"><div style="display: inline-block; white-space: nowrap;" xmlns="http://www.w3.org/1999/xhtml"><span class="edgeLabel"></span></div></foreignObject></g></g><g class="edgeLabel"><g transform="translate(0, 0)" class="label"><foreignObject height="0" width="0"><div style="display: inline-block; white-space: nowrap;" xmlns="http://www.w3.org/1999/xhtml"><span class="edgeLabel"></span></div></foreignObject></g></g><g class="edgeLabel"><g transform="translate(0, 0)" class="label"><foreignObject height="0" width="0"><div style="display: inline-block; white-space: nowrap;" xmlns="http://www.w3.org/1999/xhtml"><span class="edgeLabel"></span></div></foreignObject></g></g><g class="edgeLabel"><g transform="translate(0, 0)" class="label"><foreignObject height="0" width="0"><div style="display: inline-block; white-space: nowrap;" xmlns="http://www.w3.org/1999/xhtml"><span class="edgeLabel"></span></div></foreignObject></g></g><g class="edgeLabel"><g transform="translate(0, 0)" class="label"><foreignObject height="0" width="0"><div style="display: inline-block; white-space: nowrap;" xmlns="http://www.w3.org/1999/xhtml"><span class="edgeLabel"></span></div></foreignObject></g></g><g class="edgeLabel"><g transform="translate(0, 0)" class="label"><foreignObject height="0" width="0"><div style="display: inline-block; white-space: nowrap;" xmlns="http://www.w3.org/1999/xhtml"><span class="edgeLabel"></span></div></foreignObject></g></g><g class="edgeLabel"><g transform="translate(0, 0)" class="label"><foreignObject height="0" width="0"><div style="display: inline-block; white-space: nowrap;" xmlns="http://www.w3.org/1999/xhtml"><span class="edgeLabel"></span></div></foreignObject></g></g><g class="edgeLabel"><g transform="translate(0, 0)" class="label"><foreignObject height="0" width="0"><div style="display: inline-block; white-space: nowrap;" xmlns="http://www.w3.org/1999/xhtml"><span class="edgeLabel"></span></div></foreignObject></g></g><g class="edgeLabel"><g transform="translate(0, 0)" class="label"><foreignObject height="0" width="0"><div style="display: inline-block; white-space: nowrap;" xmlns="http://www.w3.org/1999/xhtml"><span class="edgeLabel"></span></div></foreignObject></g></g><g class="edgeLabel"><g transform="translate(0, 0)" class="label"><foreignObject height="0" width="0"><div style="display: inline-block; white-space: nowrap;" xmlns="http://www.w3.org/1999/xhtml"><span class="edgeLabel"></span></div></foreignObject></g></g><g class="edgeLabel"><g transform="translate(0, 0)" class="label"><foreignObject height="0" width="0"><div style="display: inline-block; white-space: nowrap;" xmlns="http://www.w3.org/1999/xhtml"><span class="edgeLabel"></span></div></foreignObject></g></g><g class="edgeLabel"><g transform="translate(0, 0)" class="label"><foreignObject height="0" width="0"><div style="display: inline-block; white-space: nowrap;" xmlns="http://www.w3.org/1999/xhtml"><span class="edgeLabel"></span></div></foreignObject></g></g><g class="edgeLabel"><g transform="translate(0, 0)" class="label"><foreignObject height="0" width="0"><div style="display: inline-block; white-space: nowrap;" xmlns="http://www.w3.org/1999/xhtml"><span class="edgeLabel"></span></div></foreignObject></g></g><g class="edgeLabel"><g transform="translate(0, 0)" class="label"><foreignObject height="0" width="0"><div style="display: inline-block; white-space: nowrap;" xmlns="http://www.w3.org/1999/xhtml"><span class="edgeLabel"></span></div></foreignObject></g></g><g class="edgeLabel"><g transform="translate(0, 0)" class="label"><foreignObject height="0" width="0"><div style="display: inline-block; white-space: nowrap;" xmlns="http://www.w3.org/1999/xhtml"><span class="edgeLabel"></span></div></foreignObject></g></g><g class="edgeLabel"><g transform="translate(0, 0)" class="label"><foreignObject height="0" width="0"><div style="display: inline-block; white-space: nowrap;" xmlns="http://www.w3.org/1999/xhtml"><span class="edgeLabel"></span></div></foreignObject></g></g><g class="edgeLabel"><g transform="translate(0, 0)" class="label"><foreignObject height="0" width="0"><div style="display: inline-block; white-space: nowrap;" xmlns="http://www.w3.org/1999/xhtml"><span class="edgeLabel"></span></div></foreignObject></g></g><g class="edgeLabel"><g transform="translate(0, 0)" class="label"><foreignObject height="0" width="0"><div style="display: inline-block; white-space: nowrap;" xmlns="http://www.w3.org/1999/xhtml"><span class="edgeLabel"></span></div></foreignObject></g></g></g><g class="nodes"><g transform="translate(1400.65625, 1163)" data-id="CCBOS" data-node="true" id="flowchart-CCBOS-24" class="node default default flowchart-label"><rect height="34" width="146.296875" y="-17" x="-73.1484375" ry="0" rx="0" style="" class="basic label-container"/><g transform="translate(-65.6484375, -9.5)" style="" class="label"><rect/><foreignObject height="19" width="131.296875"><div style="display: inline-block; white-space: nowrap;" xmlns="http://www.w3.org/1999/xhtml"><span class="nodeLabel">CCBOS MCP Server</span></div></foreignObject></g></g><g transform="translate(1850.65234375, 1163)" data-id="TARGET" data-node="true" id="flowchart-TARGET-25" class="node default default flowchart-label"><rect height="36" width="79.375" y="-18" x="-39.6875" ry="0" rx="0" style="" class="basic label-container"/><g transform="translate(-32.1875, -10.5)" style="" class="label"><rect/><foreignObject height="21" width="64.375"><div style="display: inline-block; white-space: nowrap;" xmlns="http://www.w3.org/1999/xhtml"><span class="nodeLabel">被测 LLM</span></div></foreignObject></g></g><g transform="translate(2005.04296875, 1163)" data-id="AUX" data-node="true" id="flowchart-AUX-26" class="node default default flowchart-label"><rect height="36" width="129.40625" y="-18" x="-64.703125" ry="0" rx="0" style="" class="basic label-container"/><g transform="translate(-57.203125, -10.5)" style="" class="label"><rect/><foreignObject height="21" width="114.40625"><div style="display: inline-block; white-space: nowrap;" xmlns="http://www.w3.org/1999/xhtml"><span class="nodeLabel">辅助 / 编排 LLM</span></div></foreignObject></g></g><g transform="translate(186.9765625, 1017.5)" data-id="PG" data-node="true" id="flowchart-PG-21" class="node default default flowchart-label"><rect height="34" width="94.171875" y="-17" x="-47.0859375" ry="0" rx="0" style="" class="basic label-container"/><g transform="translate(-39.5859375, -9.5)" style="" class="label"><rect/><foreignObject height="19" width="79.171875"><div style="display: inline-block; white-space: nowrap;" xmlns="http://www.w3.org/1999/xhtml"><span class="nodeLabel">PostgreSQL</span></div></foreignObject></g></g><g transform="translate(62.4453125, 1017.5)" data-id="MINIO" data-node="true" id="flowchart-MINIO-22" class="node default default flowchart-label"><rect height="34" width="54.890625" y="-17" x="-27.4453125" ry="0" rx="0" style="" class="basic label-container"/><g transform="translate(-19.9453125, -9.5)" style="" class="label"><rect/><foreignObject height="19" width="39.890625"><div style="display: inline-block; white-space: nowrap;" xmlns="http://www.w3.org/1999/xhtml"><span class="nodeLabel">MinIO</span></div></foreignObject></g></g><g transform="translate(342.234375, 1017.5)" data-id="REDIS" data-node="true" id="flowchart-REDIS-23" class="node default default flowchart-label"><rect height="36" width="116.34375" y="-18" x="-58.171875" ry="0" rx="0" style="" class="basic label-container"/><g transform="translate(-50.671875, -10.5)" style="" class="label"><rect/><foreignObject height="21" width="101.34375"><div style="display: inline-block; white-space: nowrap;" xmlns="http://www.w3.org/1999/xhtml"><span class="nodeLabel">Redis（可选）</span></div></foreignObject></g></g><g transform="translate(1342.11328125, 225.5)" data-id="ORCH" data-node="true" id="flowchart-ORCH-8" class="node default default flowchart-label"><rect height="57" width="159" y="-28.5" x="-79.5" ry="0" rx="0" style="" class="basic label-container"/><g transform="translate(-72, -21)" style="" class="label"><rect/><foreignObject height="42" width="144"><div style="display: inline-block; white-space: nowrap;" xmlns="http://www.w3.org/1999/xhtml"><span class="nodeLabel">编排 LLM Client<br />理解需求并生成计划</span></div></foreignObject></g></g><g transform="translate(1648.015625, 436.5)" data-id="ENG" data-node="true" id="flowchart-ENG-9" class="node default default flowchart-label"><rect height="55" width="266.265625" y="-27.5" x="-133.1328125" ry="0" rx="0" style="" class="basic label-container"/><g transform="translate(-125.6328125, -20)" style="" class="label"><rect/><foreignObject height="40" width="251.265625"><div style="display: inline-block; white-space: nowrap;" xmlns="http://www.w3.org/1999/xhtml"><span class="nodeLabel">agent.Engine<br />自研 Agent / ReAct + 计划式流水线</span></div></foreignObject></g></g><g transform="translate(1316.49609375, 541.5)" data-id="EXEC" data-node="true" id="flowchart-EXEC-10" class="node default default flowchart-label"><rect height="55" width="207" y="-27.5" x="-103.5" ry="0" rx="0" style="" class="basic label-container"/><g transform="translate(-96, -20)" style="" class="label"><rect/><foreignObject height="40" width="192"><div style="display: inline-block; white-space: nowrap;" xmlns="http://www.w3.org/1999/xhtml"><span class="nodeLabel">agent.Executor<br />统一工具调用、超时、日志</span></div></foreignObject></g></g><g transform="translate(583.91796875, 646.5)" data-id="HUB" data-node="true" id="flowchart-HUB-11" class="node default default flowchart-label"><rect height="55" width="107.78125" y="-27.5" x="-53.890625" ry="0" rx="0" style="" class="basic label-container"/><g transform="translate(-46.390625, -20)" style="" class="label"><rect/><foreignObject height="40" width="92.78125"><div style="display: inline-block; white-space: nowrap;" xmlns="http://www.w3.org/1999/xhtml"><span class="nodeLabel">LogHub<br />SSE 进度广播</span></div></foreignObject></g></g><g transform="translate(2093.71484375, 862.5)" data-id="REP" data-node="true" id="flowchart-REP-12" class="node default default flowchart-label"><rect height="55" width="140.171875" y="-27.5" x="-70.0859375" ry="0" rx="0" style="" class="basic label-container"/><g transform="translate(-62.5859375, -20)" style="" class="label"><rect/><foreignObject height="40" width="125.171875"><div style="display: inline-block; white-space: nowrap;" xmlns="http://www.w3.org/1999/xhtml"><span class="nodeLabel">report.Generator<br />结构化报告 + PDF</span></div></foreignObject></g></g><g transform="translate(1400.65625, 646.5)" data-id="MCP_CLIENT" data-node="true" id="flowchart-MCP_CLIENT-13" class="node default default flowchart-label"><rect height="36" width="128.859375" y="-18" x="-64.4296875" ry="0" rx="0" style="" class="basic label-container"/><g transform="translate(-56.9296875, -10.5)" style="" class="label"><rect/><foreignObject height="21" width="113.859375"><div style="display: inline-block; white-space: nowrap;" xmlns="http://www.w3.org/1999/xhtml"><span class="nodeLabel">内部 MCP Client</span></div></foreignObject></g></g><g transform="translate(1400.65625, 742)" data-id="MCP_SERVER" data-node="true" id="flowchart-MCP_SERVER-14" class="node default default flowchart-label"><rect height="36" width="131.625" y="-18" x="-65.8125" ry="0" rx="0" style="" class="basic label-container"/><g transform="translate(-58.3125, -10.5)" style="" class="label"><rect/><foreignObject height="21" width="116.625"><div style="display: inline-block; white-space: nowrap;" xmlns="http://www.w3.org/1999/xhtml"><span class="nodeLabel">内部 MCP Server</span></div></foreignObject></g></g><g transform="translate(1400.65625, 1017.5)" data-id="EXT" data-node="true" id="flowchart-EXT-20" class="node default default flowchart-label"><rect height="55" width="214.203125" y="-27.5" x="-107.1015625" ry="0" rx="0" style="" class="basic label-container"/><g transform="translate(-99.6015625, -20)" style="" class="label"><rect/><foreignObject height="40" width="199.203125"><div style="display: inline-block; white-space: nowrap;" xmlns="http://www.w3.org/1999/xhtml"><span class="nodeLabel">externalmcp.Manager<br />外部 MCP 同步、代理、重连</span></div></foreignObject></g></g><g transform="translate(642.9453125, 862.5)" data-id="T1" data-node="true" id="flowchart-T1-15" class="node default default flowchart-label"><rect height="34" width="265.078125" y="-17" x="-132.5390625" ry="0" rx="0" style="" class="basic label-container"/><g transform="translate(-125.0390625, -9.5)" style="" class="label"><rect/><foreignObject height="19" width="250.078125"><div style="display: inline-block; white-space: nowrap;" xmlns="http://www.w3.org/1999/xhtml"><span class="nodeLabel">recommend_resources / preview_*</span></div></foreignObject></g></g><g transform="translate(1020.90625, 862.5)" data-id="T2" data-node="true" id="flowchart-T2-16" class="node default default flowchart-label"><rect height="34" width="390.84375" y="-17" x="-195.421875" ry="0" rx="0" style="" class="basic label-container"/><g transform="translate(-187.921875, -9.5)" style="" class="label"><rect/><foreignObject height="19" width="375.84375"><div style="display: inline-block; white-space: nowrap;" xmlns="http://www.w3.org/1999/xhtml"><span class="nodeLabel">combine_template_sample / load_composed_attack</span></div></foreignObject></g></g><g transform="translate(1400.65625, 862.5)" data-id="T3" data-node="true" id="flowchart-T3-17" class="node default default flowchart-label"><rect height="34" width="268.65625" y="-17" x="-134.328125" ry="0" rx="0" style="" class="basic label-container"/><g transform="translate(-126.828125, -9.5)" style="" class="label"><rect/><foreignObject height="19" width="253.65625"><div style="display: inline-block; white-space: nowrap;" xmlns="http://www.w3.org/1999/xhtml"><span class="nodeLabel">rewrite_attack_sample_with_ccbos</span></div></foreignObject></g></g><g transform="translate(1687.86328125, 862.5)" data-id="T4" data-node="true" id="flowchart-T4-18" class="node default default flowchart-label"><rect height="34" width="145.71875" y="-17" x="-72.859375" ry="0" rx="0" style="" class="basic label-container"/><g transform="translate(-65.359375, -9.5)" style="" class="label"><rect/><foreignObject height="19" width="130.71875"><div style="display: inline-block; white-space: nowrap;" xmlns="http://www.w3.org/1999/xhtml"><span class="nodeLabel">enhance_payloads</span></div></foreignObject></g></g><g transform="translate(1882.17578125, 862.5)" data-id="T5" data-node="true" id="flowchart-T5-19" class="node default default flowchart-label"><rect height="34" width="142.90625" y="-17" x="-71.453125" ry="0" rx="0" style="" class="basic label-container"/><g transform="translate(-63.953125, -9.5)" style="" class="label"><rect/><foreignObject height="19" width="127.90625"><div style="display: inline-block; white-space: nowrap;" xmlns="http://www.w3.org/1999/xhtml"><span class="nodeLabel">execute_payloads</span></div></foreignObject></g></g><g transform="translate(2630.50390625, 18)" data-id="U" data-node="true" id="flowchart-U-0" class="node default default flowchart-label"><rect height="36" width="79" y="-18" x="-39.5" ry="0" rx="0" style="" class="basic label-container"/><g transform="translate(-32, -10.5)" style="" class="label"><rect/><foreignObject height="21" width="64"><div style="display: inline-block; white-space: nowrap;" xmlns="http://www.w3.org/1999/xhtml"><span class="nodeLabel">企业用户</span></div></foreignObject></g></g><g transform="translate(2630.50390625, 104)" data-id="FE" data-node="true" id="flowchart-FE-1" class="node default default flowchart-label"><rect height="36" width="66.65625" y="-18" x="-33.328125" ry="0" rx="0" style="" class="basic label-container"/><g transform="translate(-25.828125, -10.5)" style="" class="label"><rect/><foreignObject height="21" width="51.65625"><div style="display: inline-block; white-space: nowrap;" xmlns="http://www.w3.org/1999/xhtml"><span class="nodeLabel">前端 UI</span></div></foreignObject></g></g><g transform="translate(2630.50390625, 225.5)" data-id="API" data-node="true" id="flowchart-API-3" class="node default default flowchart-label"><rect height="34" width="108.375" y="-17" x="-54.1875" ry="0" rx="0" style="" class="basic label-container"/><g transform="translate(-46.6875, -9.5)" style="" class="label"><rect/><foreignObject height="19" width="93.375"><div style="display: inline-block; white-space: nowrap;" xmlns="http://www.w3.org/1999/xhtml"><span class="nodeLabel">Gin HTTP API</span></div></foreignObject></g></g><g transform="translate(2384.82421875, 331.5)" data-id="CHAT" data-node="true" id="flowchart-CHAT-5" class="node default default flowchart-label"><rect height="55" width="239" y="-27.5" x="-119.5" ry="0" rx="0" style="" class="basic label-container"/><g transform="translate(-112, -20)" style="" class="label"><rect/><foreignObject height="40" width="224"><div style="display: inline-block; white-space: nowrap;" xmlns="http://www.w3.org/1999/xhtml"><span class="nodeLabel">ChatHandler / ChatManager<br />会话管理、计划卡片、确认执行</span></div></foreignObject></g></g><g transform="translate(2630.50390625, 331.5)" data-id="AH" data-node="true" id="flowchart-AH-7" class="node default default flowchart-label"><rect height="55" width="152.359375" y="-27.5" x="-76.1796875" ry="0" rx="0" style="" class="basic label-container"/><g transform="translate(-68.6796875, -20)" style="" class="label"><rect/><foreignObject height="40" width="137.359375"><div style="display: inline-block; white-space: nowrap;" xmlns="http://www.w3.org/1999/xhtml"><span class="nodeLabel">AssessmentHandler<br />直接创建评测任务</span></div></foreignObject></g></g></g></g></g></svg>